<svg xmlns="http://www.w3.org/2000/svg" id="Layer_2" data-name="Layer 2" viewBox="0 0 1575.66 366.88"><defs><style>      .cls-1 {        fill: #0b0a0d;      }      .cls-2 {        fill: #ff7300;      }    </style></defs><g id="Layer_1-2" data-name="Layer 1"><g><path class="cls-1" d="M535.25,354.77c-6.68,0-12.01-2.26-15.98-6.79-3.97-4.52-5.96-10.59-5.96-18.2s1.98-13.43,5.94-17.85c3.96-4.42,9.29-6.64,15.99-6.64,4.34,0,8.18,1.02,11.53,3.07,3.35,2.05,5.68,4.76,6.99,8.15,.31,.8,.46,1.64,.46,2.52,0,.82-.25,1.48-.75,1.97s-1.16,.75-1.97,.75c-.73,0-1.34-.19-1.82-.58-.49-.39-.92-1.02-1.29-1.91-1.22-2.77-2.95-4.87-5.21-6.31-2.26-1.44-4.9-2.16-7.93-2.16-4.93,0-8.8,1.68-11.6,5.03-2.8,3.35-4.2,7.99-4.2,13.92s1.42,10.77,4.25,14.27c2.83,3.5,6.68,5.24,11.55,5.24,4.25,0,7.7-1.26,10.35-3.77,2.65-2.51,3.98-5.77,3.98-9.77v-.86h-11.15c-.84,0-1.53-.24-2.06-.73-.53-.49-.8-1.12-.8-1.89s.27-1.4,.8-1.89c.53-.49,1.22-.73,2.06-.73h14.14c.91,0,1.63,.28,2.17,.83s.81,1.31,.81,2.26v1.46c0,6.48-1.79,11.54-5.36,15.17-3.57,3.63-8.56,5.44-14.95,5.44Z"></path><path class="cls-1" d="M567.25,353.71c-.54,.57-1.23,.86-2.07,.86s-1.53-.29-2.07-.86-.81-1.32-.81-2.22v-29.7c0-.86,.25-1.57,.76-2.11,.51-.54,1.16-.81,1.96-.81s1.45,.27,1.96,.81c.51,.54,.76,1.24,.76,2.11v3.32h.13c.49-1.79,1.48-3.28,2.99-4.46,1.5-1.18,3.12-1.78,4.85-1.78,1.22,0,2.12,.28,2.72,.83,.49,.46,.73,1.11,.73,1.93,0,.88-.3,1.56-.9,2.02-.58,.49-1.49,.73-2.75,.73-2.48,0-4.34,.77-5.57,2.31-1.24,1.54-1.86,3.49-1.86,5.86v18.95c0,.91-.27,1.65-.81,2.22Z"></path><path class="cls-1" d="M595.88,354.57c-4.82,0-8.69-1.61-11.61-4.83s-4.38-7.56-4.38-13.02,1.46-9.81,4.38-13.03,6.79-4.83,11.61-4.83,8.66,1.61,11.58,4.83c2.92,3.22,4.38,7.56,4.38,13.03s-1.46,9.78-4.38,13.01c-2.92,3.23-6.78,4.85-11.58,4.85Zm-7.38-8.46c1.83,2.26,4.29,3.38,7.38,3.38s5.55-1.12,7.37-3.37c1.81-2.25,2.72-5.38,2.72-9.41s-.91-7.16-2.72-9.41c-1.81-2.25-4.27-3.37-7.37-3.37s-5.56,1.13-7.38,3.38c-1.82,2.26-2.74,5.39-2.74,9.39s.91,7.13,2.74,9.39Z"></path><path class="cls-1" d="M629.43,354.57c-3.74,0-6.67-1.13-8.78-3.4-2.11-2.27-3.17-5.37-3.17-9.31v-19.91c0-.91,.27-1.65,.81-2.22,.54-.57,1.23-.86,2.07-.86s1.53,.29,2.07,.86c.54,.58,.81,1.32,.81,2.22v18.88c0,5.75,2.65,8.63,7.96,8.63,2.79,0,4.98-.88,6.59-2.64,1.6-1.76,2.41-4.12,2.41-7.08v-17.79c0-.91,.27-1.65,.81-2.22,.54-.57,1.23-.86,2.07-.86s1.53,.29,2.07,.86c.54,.58,.81,1.32,.81,2.22v29.7c0,.84-.25,1.54-.75,2.09-.5,.55-1.16,.83-1.97,.83s-1.48-.28-1.99-.83c-.51-.55-.76-1.25-.76-2.09v-3.29h-.13c-2.15,4.14-5.8,6.21-10.95,6.21Z"></path><path class="cls-1" d="M658.41,365.29c-.54,.58-1.23,.86-2.07,.86s-1.53-.29-2.07-.86-.81-1.32-.81-2.22v-41.28c0-.86,.25-1.57,.76-2.11,.51-.54,1.17-.81,1.99-.81s1.45,.27,1.96,.81c.51,.54,.76,1.24,.76,2.11v3.52h.13c1.08-1.99,2.6-3.56,4.55-4.71,1.95-1.15,4.15-1.73,6.6-1.73,4.42,0,7.99,1.63,10.7,4.88,2.71,3.25,4.07,7.58,4.07,12.98s-1.35,9.7-4.05,12.96c-2.7,3.26-6.23,4.89-10.59,4.89-2.43,0-4.61-.55-6.54-1.66-1.93-1.11-3.41-2.62-4.45-4.55h-.13v14.7c0,.91-.27,1.65-.81,2.22Zm10.67-15.8c3.07,0,5.51-1.15,7.3-3.45s2.69-5.41,2.69-9.32-.9-7.02-2.69-9.32c-1.79-2.3-4.23-3.45-7.3-3.45s-5.35,1.17-7.17,3.52c-1.81,2.35-2.72,5.43-2.72,9.26s.91,6.94,2.72,9.27c1.81,2.33,4.2,3.5,7.17,3.5Z"></path><path class="cls-1" d="M774.71,354.57c-4.8,0-8.66-1.61-11.56-4.83-2.91-3.22-4.36-7.54-4.36-12.96s1.45-9.76,4.35-13.03c2.9-3.26,6.74-4.89,11.52-4.89,3.23,0,6.12,.81,8.68,2.42,2.56,1.62,4.16,3.63,4.83,6.04,.13,.42,.2,.83,.2,1.23,0,.77-.22,1.39-.66,1.84-.44,.45-1.04,.68-1.79,.68-.62,0-1.13-.15-1.54-.45-.41-.3-.81-.82-1.21-1.58-1.81-3.41-4.62-5.11-8.43-5.11-3.01,0-5.44,1.17-7.28,3.5-1.85,2.33-2.77,5.43-2.77,9.28s.92,7.02,2.77,9.32,4.28,3.45,7.28,3.45c2.01,0,3.69-.43,5.04-1.28,1.35-.85,2.49-2.13,3.42-3.83,.42-.77,.82-1.3,1.19-1.59,.38-.29,.88-.43,1.53-.43,.75,0,1.35,.23,1.81,.7,.45,.46,.68,1.07,.68,1.82,0,.4-.09,.89-.27,1.46-.84,2.41-2.51,4.39-4.99,5.92-2.49,1.54-5.29,2.31-8.41,2.31Z"></path><path class="cls-1" d="M808.82,354.57c-4.82,0-8.69-1.61-11.62-4.83s-4.38-7.56-4.38-13.02,1.46-9.81,4.38-13.03,6.79-4.83,11.62-4.83,8.66,1.61,11.58,4.83,4.38,7.56,4.38,13.03-1.46,9.78-4.38,13.01c-2.92,3.23-6.78,4.85-11.58,4.85Zm-7.38-8.46c1.82,2.26,4.29,3.38,7.38,3.38s5.55-1.12,7.37-3.37c1.81-2.25,2.72-5.38,2.72-9.41s-.91-7.16-2.72-9.41c-1.81-2.25-4.27-3.37-7.37-3.37s-5.56,1.13-7.38,3.38c-1.83,2.26-2.74,5.39-2.74,9.39s.91,7.13,2.74,9.39Z"></path><path class="cls-1" d="M835.57,353.69c-.53,.59-1.23,.88-2.09,.88s-1.56-.29-2.09-.88-.8-1.32-.8-2.21v-29.7c0-.86,.25-1.57,.76-2.11s1.16-.81,1.96-.81,1.45,.27,1.96,.81,.76,1.24,.76,2.11v3.19h.13c.84-1.88,2.11-3.37,3.82-4.46s3.69-1.64,5.97-1.64,4.36,.57,6.04,1.71c1.68,1.14,2.9,2.76,3.65,4.86h.13c.95-2.06,2.38-3.67,4.3-4.83,1.91-1.16,4.09-1.74,6.52-1.74,3.41,0,6.13,1.02,8.18,3.07,2.05,2.05,3.07,4.78,3.07,8.21v21.34c0,.89-.27,1.62-.8,2.21s-1.23,.88-2.09,.88-1.56-.29-2.09-.88c-.53-.59-.8-1.32-.8-2.21v-20.01c0-2.37-.63-4.21-1.87-5.52-1.25-1.32-3.01-1.97-5.29-1.97s-4.15,.76-5.61,2.27c-1.46,1.52-2.19,3.45-2.19,5.79v19.45c0,.89-.27,1.62-.8,2.21s-1.23,.88-2.09,.88-1.56-.29-2.09-.88-.8-1.32-.8-2.21v-20.64c0-2.08-.64-3.74-1.93-4.99-1.28-1.25-3-1.87-5.14-1.87-2.28,0-4.16,.8-5.66,2.39s-2.24,3.58-2.24,5.97v19.15c0,.89-.27,1.62-.8,2.21Z"></path><path class="cls-1" d="M890.14,365.29c-.54,.58-1.23,.86-2.07,.86s-1.53-.29-2.07-.86c-.54-.58-.81-1.32-.81-2.22v-41.28c0-.86,.25-1.57,.76-2.11s1.17-.81,1.99-.81,1.45,.27,1.96,.81,.76,1.24,.76,2.11v3.52h.13c1.08-1.99,2.6-3.56,4.55-4.71,1.95-1.15,4.15-1.73,6.6-1.73,4.42,0,7.99,1.63,10.7,4.88,2.71,3.25,4.07,7.58,4.07,12.98s-1.35,9.7-4.05,12.96c-2.7,3.26-6.23,4.89-10.59,4.89-2.43,0-4.61-.55-6.54-1.66-1.93-1.11-3.41-2.62-4.45-4.55h-.13v14.7c0,.91-.27,1.65-.81,2.22Zm10.67-15.8c3.07,0,5.51-1.15,7.3-3.45,1.79-2.3,2.69-5.41,2.69-9.32s-.9-7.02-2.69-9.32c-1.79-2.3-4.23-3.45-7.3-3.45s-5.35,1.17-7.17,3.52c-1.81,2.35-2.72,5.43-2.72,9.26s.91,6.94,2.72,9.27c1.81,2.33,4.2,3.5,7.17,3.5Z"></path><path class="cls-1" d="M932.57,354.57c-3.43,0-6.2-.95-8.31-2.85s-3.17-4.4-3.17-7.5,1.09-5.33,3.27-7.1c2.18-1.77,5.26-2.77,9.24-2.99l9.92-.56v-2.89c0-2.1-.66-3.75-1.99-4.94s-3.19-1.79-5.57-1.79c-1.9,0-3.51,.38-4.83,1.13-1.32,.75-2.45,1.97-3.4,3.65-.51,.93-1.31,1.39-2.39,1.39-.75,0-1.37-.24-1.84-.71-.48-.48-.71-1.1-.71-1.87s.23-1.57,.7-2.39c.97-1.88,2.62-3.4,4.93-4.55,2.31-1.15,4.87-1.73,7.68-1.73,4.05,0,7.26,1.02,9.64,3.05,2.38,2.04,3.57,4.77,3.57,8.2v21.54c0,.86-.25,1.57-.76,2.11-.51,.54-1.16,.81-1.96,.81s-1.48-.27-1.99-.81c-.51-.54-.76-1.24-.76-2.11v-3.62h-.13c-1.02,1.97-2.54,3.55-4.58,4.75-2.04,1.19-4.21,1.79-6.54,1.79Zm1.29-4.91c2.72,0,5.01-.85,6.87-2.54s2.79-3.78,2.79-6.26v-2.82l-9.26,.56c-2.32,.15-4.12,.72-5.39,1.69-1.27,.97-1.91,2.28-1.91,3.92s.63,2.95,1.89,3.95c1.26,1,2.93,1.49,5.01,1.49Z"></path><path class="cls-1" d="M961.59,353.71c-.54,.57-1.23,.86-2.07,.86s-1.53-.29-2.07-.86c-.54-.57-.81-1.32-.81-2.22v-29.7c0-.86,.25-1.57,.76-2.11s1.16-.81,1.96-.81,1.45,.27,1.96,.81,.76,1.24,.76,2.11v3.19h.13c1-1.92,2.42-3.42,4.28-4.5,1.86-1.07,4.08-1.61,6.67-1.61,3.76,0,6.69,1.13,8.79,3.4,2.1,2.27,3.15,5.37,3.15,9.31v19.91c0,.91-.27,1.65-.81,2.22-.54,.57-1.23,.86-2.07,.86s-1.53-.29-2.07-.86c-.54-.57-.81-1.32-.81-2.22v-18.88c0-2.81-.66-4.95-1.99-6.42-1.33-1.47-3.31-2.21-5.94-2.21s-4.9,.89-6.54,2.65c-1.64,1.77-2.46,4.11-2.46,7.04v17.82c0,.91-.27,1.65-.81,2.22Z"></path><path class="cls-1" d="M995.82,366.88c-1.39,0-2.47-.25-3.22-.75-.75-.5-1.13-1.2-1.13-2.11,0-.64,.2-1.16,.61-1.54,.41-.39,.98-.58,1.71-.58,.27,0,.58,0,.95,.02,.37,.01,.7,.02,1.01,.02,2.57,0,4.45-1.84,5.64-5.51l.8-2.42-11.88-30.96c-.2-.55-.3-1.06-.3-1.53,0-.8,.27-1.44,.81-1.92,.54-.49,1.23-.73,2.07-.73,1.35,0,2.27,.71,2.75,2.12l9.52,27.21h.1l9.56-27.21c.27-.77,.61-1.32,1.03-1.64,.42-.32,.98-.48,1.69-.48,.82,0,1.49,.25,2.02,.75,.53,.5,.8,1.13,.8,1.91,0,.46-.1,.97-.3,1.53l-12.74,33.35c-1.48,3.96-3.06,6.7-4.73,8.21-1.67,1.52-3.93,2.27-6.79,2.27Z"></path><path class="cls-1" d="M1109.45,354.57c-4.82,0-8.69-1.61-11.62-4.83s-4.38-7.56-4.38-13.02,1.46-9.81,4.38-13.03,6.79-4.83,11.62-4.83,8.66,1.61,11.58,4.83,4.38,7.56,4.38,13.03-1.46,9.78-4.38,13.01c-2.92,3.23-6.78,4.85-11.58,4.85Zm-7.38-8.46c1.82,2.26,4.29,3.38,7.38,3.38s5.55-1.12,7.37-3.37c1.81-2.25,2.72-5.38,2.72-9.41s-.91-7.16-2.72-9.41c-1.81-2.25-4.27-3.37-7.37-3.37s-5.56,1.13-7.38,3.38c-1.83,2.26-2.74,5.39-2.74,9.39s.91,7.13,2.74,9.39Z"></path><path class="cls-1" d="M1138.07,353.74c-.52,.55-1.22,.83-2.11,.83s-1.59-.28-2.11-.83c-.52-.55-.78-1.29-.78-2.22v-27.31h-2.85c-.75,0-1.35-.21-1.79-.63-.44-.42-.66-1-.66-1.73s.22-1.28,.66-1.73c.44-.44,1.04-.66,1.79-.66h2.85v-3.85c0-3.25,.75-5.7,2.26-7.33,1.5-1.64,3.68-2.46,6.54-2.46,1.5,0,2.66,.23,3.47,.7,.81,.46,1.21,1.13,1.21,1.99,0,1.06-.52,1.74-1.56,2.02-.51,.13-1.11,.2-1.79,.2-1.53,0-2.64,.4-3.34,1.21s-1.05,2.1-1.05,3.87v3.65h5.11c.75,0,1.35,.22,1.79,.66,.44,.44,.66,1.02,.66,1.73s-.22,1.31-.66,1.73c-.44,.42-1.04,.63-1.79,.63h-5.08v27.31c0,.93-.26,1.67-.78,2.22Z"></path><path class="cls-1" d="M1222.6,354.44c-.86,0-1.58-.25-2.14-.75-.56-.5-.85-1.12-.85-1.87,0-.44,.12-1,.37-1.66l15.4-41.65c.71-1.92,2.01-2.89,3.92-2.89,1.79,0,3.04,.95,3.75,2.85l15.43,41.68c.24,.66,.37,1.22,.37,1.66,0,.75-.28,1.38-.85,1.87-.56,.5-1.28,.75-2.14,.75-1.42,0-2.39-.76-2.92-2.29l-4.25-11.88h-18.95l-4.22,11.88c-.53,1.53-1.5,2.29-2.92,2.29Zm8.86-19.25h15.53l-7.67-21.84h-.2l-7.67,21.84Z"></path><path class="cls-1" d="M1270.42,353.61c-.53,.55-1.25,.83-2.16,.83s-1.63-.28-2.16-.83c-.53-.55-.8-1.3-.8-2.26v-42.24c0-1.04,.31-1.88,.95-2.52,.63-.64,1.45-.96,2.47-.96,.8,0,1.44,.14,1.93,.42,.49,.28,1,.8,1.53,1.58l25.15,36.07h.3v-34.98c0-.95,.27-1.7,.8-2.26s1.25-.83,2.16-.83,1.63,.28,2.16,.83,.8,1.31,.8,2.26v42.48c0,1.02-.3,1.81-.9,2.39-.6,.57-1.43,.86-2.49,.86-.82,0-1.47-.14-1.94-.42-.48-.28-.98-.79-1.51-1.54l-25.19-35.97h-.3v34.84c0,.95-.27,1.7-.8,2.26Z"></path><path class="cls-1" d="M1315.82,353.97c-.91,0-1.63-.28-2.17-.83s-.81-1.31-.81-2.26v-41.71c0-.95,.27-1.7,.81-2.26,.54-.55,1.27-.83,2.17-.83h13.11c7.1,0,12.64,2.11,16.63,6.32,3.98,4.21,5.97,10.08,5.97,17.6s-1.99,13.42-5.96,17.64c-3.97,4.21-9.52,6.32-16.64,6.32h-13.11Zm2.99-5.38h9.72c5.42,0,9.59-1.6,12.51-4.8,2.92-3.2,4.38-7.77,4.38-13.72s-1.45-10.6-4.36-13.8c-2.91-3.21-7.09-4.81-12.53-4.81h-9.72v37.13Z"></path><path class="cls-1" d="M1420.82,354.77c-6.68,0-12.01-2.26-15.98-6.79-3.97-4.52-5.96-10.59-5.96-18.2s1.98-13.43,5.94-17.85c3.96-4.42,9.29-6.64,15.99-6.64,4.34,0,8.18,1.02,11.53,3.07,3.35,2.05,5.68,4.76,6.99,8.15,.31,.8,.46,1.64,.46,2.52,0,.82-.25,1.48-.75,1.97s-1.16,.75-1.97,.75c-.73,0-1.34-.19-1.82-.58-.49-.39-.92-1.02-1.29-1.91-1.22-2.77-2.95-4.87-5.21-6.31-2.26-1.44-4.9-2.16-7.93-2.16-4.93,0-8.8,1.68-11.6,5.03-2.8,3.35-4.2,7.99-4.2,13.92s1.42,10.77,4.25,14.27c2.83,3.5,6.68,5.24,11.55,5.24,4.25,0,7.7-1.26,10.35-3.77,2.65-2.51,3.98-5.77,3.98-9.77v-.86h-11.15c-.84,0-1.53-.24-2.06-.73-.53-.49-.8-1.12-.8-1.89s.27-1.4,.8-1.89c.53-.49,1.22-.73,2.06-.73h14.14c.91,0,1.63,.28,2.17,.83,.54,.55,.81,1.31,.81,2.26v1.46c0,6.48-1.79,11.54-5.36,15.17-3.57,3.63-8.56,5.44-14.95,5.44Z"></path><path class="cls-1" d="M1453.12,353.71c-.54,.57-1.23,.86-2.07,.86s-1.53-.29-2.07-.86c-.54-.57-.81-1.32-.81-2.22v-42.91c0-.91,.27-1.65,.81-2.22,.54-.57,1.23-.86,2.07-.86s1.53,.29,2.07,.86c.54,.58,.81,1.32,.81,2.22v42.91c0,.91-.27,1.65-.81,2.22Z"></path><path class="cls-1" d="M1476.04,354.57c-4.82,0-8.69-1.61-11.62-4.83s-4.38-7.56-4.38-13.02,1.46-9.81,4.38-13.03,6.79-4.83,11.62-4.83,8.66,1.61,11.58,4.83,4.38,7.56,4.38,13.03-1.46,9.78-4.38,13.01c-2.92,3.23-6.78,4.85-11.58,4.85Zm-7.38-8.46c1.82,2.26,4.29,3.38,7.38,3.38s5.55-1.12,7.37-3.37c1.81-2.25,2.72-5.38,2.72-9.41s-.91-7.16-2.72-9.41c-1.81-2.25-4.27-3.37-7.37-3.37s-5.56,1.13-7.38,3.38c-1.83,2.26-2.74,5.39-2.74,9.39s.91,7.13,2.74,9.39Z"></path><path class="cls-1" d="M1502.82,353.77c-.53,.53-1.21,.8-2.02,.8s-1.47-.26-1.96-.78c-.49-.52-.73-1.2-.73-2.04v-43.17c0-.91,.27-1.65,.81-2.22,.54-.57,1.23-.86,2.07-.86s1.53,.29,2.07,.86c.54,.58,.81,1.32,.81,2.22v16.66h.13c1.11-1.99,2.63-3.55,4.56-4.68,1.94-1.13,4.11-1.69,6.52-1.69,4.36,0,7.88,1.63,10.55,4.88,2.68,3.25,4.02,7.58,4.02,12.98s-1.34,9.75-4.02,12.99c-2.68,3.24-6.23,4.86-10.65,4.86-2.48,0-4.68-.56-6.62-1.69-1.94-1.13-3.48-2.71-4.63-4.75h-.13v3.62c0,.82-.27,1.49-.8,2.02Zm11.05-4.28c3.05,0,5.46-1.15,7.23-3.43s2.66-5.4,2.66-9.34-.89-7.02-2.66-9.32c-1.77-2.3-4.18-3.45-7.23-3.45s-5.35,1.18-7.22,3.53c-1.87,2.36-2.8,5.44-2.8,9.24s.93,6.91,2.8,9.26c1.87,2.35,4.28,3.52,7.22,3.52Z"></path><path class="cls-1" d="M1545.53,354.57c-3.43,0-6.2-.95-8.31-2.85s-3.17-4.4-3.17-7.5,1.09-5.33,3.27-7.1c2.18-1.77,5.26-2.77,9.24-2.99l9.92-.56v-2.89c0-2.1-.66-3.75-1.99-4.94s-3.19-1.79-5.57-1.79c-1.9,0-3.51,.38-4.83,1.13-1.32,.75-2.45,1.97-3.4,3.65-.51,.93-1.31,1.39-2.39,1.39-.75,0-1.37-.24-1.84-.71-.48-.48-.71-1.1-.71-1.87s.23-1.57,.7-2.39c.97-1.88,2.62-3.4,4.93-4.55,2.31-1.15,4.87-1.73,7.68-1.73,4.05,0,7.26,1.02,9.64,3.05,2.38,2.04,3.57,4.77,3.57,8.2v21.54c0,.86-.25,1.57-.76,2.11-.51,.54-1.16,.81-1.96,.81s-1.48-.27-1.99-.81c-.51-.54-.76-1.24-.76-2.11v-3.62h-.13c-1.02,1.97-2.54,3.55-4.58,4.75-2.04,1.19-4.21,1.79-6.54,1.79Zm1.29-4.91c2.72,0,5.01-.85,6.87-2.54s2.79-3.78,2.79-6.26v-2.82l-9.26,.56c-2.32,.15-4.12,.72-5.39,1.69-1.27,.97-1.91,2.28-1.91,3.92s.63,2.95,1.89,3.95c1.26,1,2.93,1.49,5.01,1.49Z"></path><path class="cls-1" d="M1574.84,353.71c-.54,.57-1.23,.86-2.07,.86s-1.53-.29-2.07-.86c-.54-.57-.81-1.32-.81-2.22v-42.91c0-.91,.27-1.65,.81-2.22,.54-.57,1.23-.86,2.07-.86s1.53,.29,2.07,.86c.54,.58,.81,1.32,.81,2.22v42.91c0,.91-.27,1.65-.81,2.22Z"></path></g><g><g><path class="cls-2" d="M327.2,105.54c6.47,6.53,6.4,17.08-.13,23.54l-67.92,67.31-42.59-41.8c-6.53-6.4-6.59-16.95-.19-23.48,6.47-6.53,16.95-6.59,23.48-.19l19.18,18.86,44.69-44.31c6.53-6.47,17.01-6.4,23.48,.06Z"></path><path class="cls-2" d="M266.8,0h-118.32C107.45,0,70.34,16.63,43.52,43.45,16.63,70.34,0,107.45,0,148.48c0,82,66.45,148.48,148.48,148.48h118.35c41,0,78.11-16.63,105.03-43.45,26.82-26.89,43.45-64.03,43.45-105.03C415.28,66.45,348.83,0,266.8,0Zm.61,263.2c-63.3,0-114.59-51.29-114.59-114.65s51.29-114.59,114.59-114.59,114.59,51.29,114.59,114.59-51.29,114.65-114.59,114.65Z"></path></g><g><path d="M543.86,33.9h-23.86c-2.58,0-4.68,2.04-4.68,4.68v219.87c0,2.58,2.1,4.68,4.68,4.68h23.86c2.64,0,4.68-2.1,4.68-4.68V38.58c0-2.64-2.04-4.68-4.68-4.68Z"></path><path d="M657.43,94.07c-46.73,0-84.07,38.58-84.07,86.55s34.47,86.24,86.55,86.24c36.99,0,58.87-14.56,71.8-34.47,1.47-2.23,.86-5.13-1.37-6.53l-19.05-12.07c-2.23-1.47-5.29-.61-6.53,1.78-7.9,14.3-21.34,21.82-43.9,21.82-25.9,0-46.48-15.16-53.26-39.95-.8-2.96,1.53-5.86,4.56-5.86h123.16c2.45,0,4.49-1.91,4.62-4.36,.13-3.03,.25-6.79,.25-10.35,0-42.66-31.63-82.8-82.73-82.8h-.03Zm44.5,72.12h-89.52c-3.03,0-5.29-2.84-4.56-5.8,6.72-24.98,26.89-39.37,50.84-39.37s41.8,14.97,47.78,39.5c.67,2.9-1.59,5.67-4.56,5.67h0Z"></path><path d="M850.73,94.07c-24.53,0-43.33,10.35-54.6,24.78v-16.34c0-2.58-2.1-4.68-4.68-4.68h-22.01c-2.58,0-4.68,2.1-4.68,4.68v155.91c0,2.58,2.1,4.68,4.68,4.68h23.92c2.58,0,4.62-2.1,4.62-4.68v-95.98c.32-20.39,18.54-38.58,43.33-38.58,26.31-.32,42.66,16.02,42.66,43.26v91.3c0,2.58,2.04,4.68,4.68,4.68h23.86c2.58,0,4.68-2.1,4.68-4.68v-97.26c0-40.49-25.13-67.12-66.45-67.12v.03Z"></path><path d="M1107.53,33.9h-23.86c-2.58,0-4.68,2.04-4.68,4.68V120.74c-13.19-16.63-32.91-26.31-56.77-26.31-47.02,0-80.57,36.99-80.57,85.92s34.15,86.55,81.49,86.55c25.13,0,45.49-11.02,58.36-29.47v21.03c0,2.58,2.1,4.68,4.68,4.68h21.38c2.58,0,4.68-2.1,4.68-4.68V38.58c0-2.64-2.1-4.68-4.68-4.68h-.03Zm-80.31,203.53c-30.39,0-52.69-24.12-52.69-57.09s22.55-56.77,52.69-56.77c31.7,0,53.01,23.54,53.01,56.77s-21.63,57.09-53.01,57.09Z"></path><path d="M1332.02,94.07c-29.15,0-48.58,13.79-57.34,30.39-9.43-19.11-26.95-30.39-54.6-30.39-23.54,0-41.73,11.02-52.09,24.78v-16.34c0-2.58-2.04-4.68-4.62-4.68h-22.01c-2.64,0-4.68,2.1-4.68,4.68v155.91c0,2.58,2.04,4.68,4.68,4.68h23.86c2.58,0,4.68-2.1,4.68-4.68v-97.58c.32-17.55,15.35-36.99,40.49-36.99,25.04-.32,39.5,18.19,39.5,42.97v91.59c0,2.58,2.1,4.68,4.68,4.68h23.86c2.58,0,4.68-2.1,4.68-4.68v-97.58c.32-17.2,15.04-36.99,40.49-36.99,25.04-.32,39.5,18.19,39.5,42.97v91.59c0,2.58,2.1,4.68,4.68,4.68h23.61c2.58,0,4.68-2.1,4.68-4.68v-97.58c0-37.91-22.94-66.77-64.03-66.77h-.03Z"></path><path d="M1506.72,94.07c-24.47,0-43.26,10.35-54.54,24.78v-16.34c0-2.58-2.1-4.68-4.68-4.68h-22.01c-2.58,0-4.68,2.1-4.68,4.68v155.91c0,2.58,2.1,4.68,4.68,4.68h23.86c2.64,0,4.68-2.1,4.68-4.68v-95.98c.32-20.39,18.54-38.58,43.33-38.58,26.31-.32,42.66,16.02,42.66,43.26v91.3c0,2.58,2.04,4.68,4.62,4.68h23.92c2.58,0,4.68-2.1,4.68-4.68v-97.26c0-40.49-25.13-67.12-66.52-67.12v.03Z"></path></g></g></g></svg>